<?xml version="1.0" encoding="UTF-8"?>
<!DOCTYPE svg PUBLIC "-//W3C//DTD SVG 1.1//EN" "http://www.w3.org/Graphics/SVG/1.1/DTD/svg11.dtd">
<svg xmlns="http://www.w3.org/2000/svg" version="1.1" width="450px" height="396px" style="shape-rendering:geometricPrecision; text-rendering:geometricPrecision; image-rendering:optimizeQuality; fill-rule:evenodd; clip-rule:evenodd" xmlns:xlink="http://www.w3.org/1999/xlink">
<g><path style="opacity:0.455" fill="#cbc8b2" d="M 204.5,20.5 C 208.486,19.8343 212.653,19.501 217,19.5C 224.386,19.4076 231.552,20.0743 238.5,21.5C 227.181,20.7784 215.848,20.4451 204.5,20.5 Z"/></g>
<g><path style="opacity:0.733" fill="#a19b73" d="M 204.5,20.5 C 198.699,21.6818 192.699,22.3484 186.5,22.5C 192.261,20.9431 198.261,20.2764 204.5,20.5 Z"/></g>
<g><path style="opacity:1" fill="#615715" d="M 204.5,20.5 C 215.848,20.4451 227.181,20.7784 238.5,21.5C 244.818,21.53 250.985,22.53 257,24.5C 259.271,23.771 261.438,24.1043 263.5,25.5C 265.515,26.9238 267.848,27.5905 270.5,27.5C 296.315,34.365 319.315,46.365 339.5,63.5C 340.543,66.0562 342.21,68.2228 344.5,70C 348.012,73.0097 351.679,75.843 355.5,78.5C 356.464,82.7971 359.13,85.4638 363.5,86.5C 399.835,130.932 412.001,181.599 400,238.5C 397.72,246.026 395.22,253.359 392.5,260.5C 390.896,261.287 390.229,262.62 390.5,264.5C 389.424,267.648 388.091,270.648 386.5,273.5C 385.094,273.973 384.427,274.973 384.5,276.5C 372.843,300.009 356.509,319.842 335.5,336C 329.991,339.363 324.658,342.863 319.5,346.5C 317.62,346.229 316.287,346.896 315.5,348.5C 312.096,350.867 308.429,352.867 304.5,354.5C 302.847,354.66 301.514,355.326 300.5,356.5C 288.944,362.765 276.611,367.099 263.5,369.5C 260.848,369.41 258.515,370.076 256.5,371.5C 223.167,377.999 190.167,376.332 157.5,366.5C 155.721,364.656 153.388,363.99 150.5,364.5C 149.713,362.896 148.38,362.229 146.5,362.5C 92.8164,341.982 55.983,304.649 36,250.5C 34.3397,243.527 32.8397,236.527 31.5,229.5C 31.3541,225.613 30.6874,221.946 29.5,218.5C 28.8018,215.103 28.1352,211.603 27.5,208C 28.8333,201 28.8333,194 27.5,187C 28.3223,181.375 29.3223,175.875 30.5,170.5C 31.913,167.781 32.5797,164.781 32.5,161.5C 33.2931,157.12 34.2931,152.787 35.5,148.5C 36.5375,147.07 37.2041,145.403 37.5,143.5C 53.2935,98.0396 82.6268,64.3729 125.5,42.5C 127.027,42.573 128.027,41.9063 128.5,40.5C 131.256,38.7962 134.256,37.4629 137.5,36.5C 139.201,36.0338 140.701,36.0338 142,36.5C 142.698,35.3094 143.531,34.3094 144.5,33.5C 150.211,30.9957 156.211,28.9957 162.5,27.5C 163.822,27.33 164.989,27.6634 166,28.5C 166.985,27.1859 168.152,26.1859 169.5,25.5C 174.975,24.1411 180.642,23.1411 186.5,22.5C 192.699,22.3484 198.699,21.6818 204.5,20.5 Z"/></g>
<g><path style="opacity:0.447" fill="#dcdbcc" d="M 263.5,25.5 C 266.152,25.4095 268.485,26.0762 270.5,27.5C 267.848,27.5905 265.515,26.9238 263.5,25.5 Z"/></g>
<g><path style="opacity:1" fill="#ada582" d="M 169.5,25.5 C 168.152,26.1859 166.985,27.1859 166,28.5C 164.989,27.6634 163.822,27.33 162.5,27.5C 164.515,26.0762 166.848,25.4095 169.5,25.5 Z"/></g>
<g><path style="opacity:1" fill="#a49c75" d="M 144.5,33.5 C 143.531,34.3094 142.698,35.3094 142,36.5C 140.701,36.0338 139.201,36.0338 137.5,36.5C 139.426,34.7073 141.759,33.7073 144.5,33.5 Z"/></g>
<g><path style="opacity:0.694" fill="#c4bfa5" d="M 128.5,40.5 C 128.027,41.9063 127.027,42.573 125.5,42.5C 125.973,41.0937 126.973,40.427 128.5,40.5 Z"/></g>
<g><path style="opacity:0.82" fill="#8d8555" d="M 339.5,63.5 C 342.201,66.1995 345.201,68.5328 348.5,70.5C 350.907,73.2314 353.241,75.8981 355.5,78.5C 351.679,75.843 348.012,73.0097 344.5,70C 342.21,68.2228 340.543,66.0562 339.5,63.5 Z"/></g>
<g><path style="opacity:0.875" fill="#8e8658" d="M 355.5,78.5 C 357.833,81.5 360.5,84.1667 363.5,86.5C 359.13,85.4638 356.464,82.7971 355.5,78.5 Z"/></g>
<g><path style="opacity:1" fill="#c2c2c1" d="M 262.5,83.5 C 264.346,83.2222 265.68,83.8888 266.5,85.5C 263.837,89.9851 262.504,94.8184 262.5,100C 265.306,111.335 267.306,122.835 268.5,134.5C 268.332,140 267.332,145.333 265.5,150.5C 263.365,150.853 262.032,150.02 261.5,148C 265.681,136.682 265.181,125.515 260,114.5C 258.669,106.536 258.335,98.5363 259,90.5C 259.653,87.8608 260.82,85.5274 262.5,83.5 Z"/></g>
<g><path style="opacity:1" fill="#c0bfbd" d="M 217.5,84.5 C 219.346,84.2222 220.68,84.8888 221.5,86.5C 220.441,89.2355 219.775,92.0688 219.5,95C 222.271,104.998 223.437,115.165 223,125.5C 222.735,127.651 221.735,129.318 220,130.5C 218.72,130.387 217.887,129.72 217.5,128.5C 218.969,125.875 219.635,123.042 219.5,120C 218.152,111.606 216.485,103.273 214.5,95C 214.808,91.2625 215.808,87.7625 217.5,84.5 Z"/></g>
<g><path style="opacity:1" fill="#bebebb" d="M 176.5,85.5 C 178.252,85.4176 179.252,86.2509 179.5,88C 177.768,92.6913 176.768,97.5247 176.5,102.5C 177.913,113.971 179.913,125.304 182.5,136.5C 182.624,141.339 181.79,146.005 180,150.5C 178.951,152.107 177.451,152.773 175.5,152.5C 178.754,139.25 177.921,126.25 173,113.5C 170.131,103.591 171.298,94.2572 176.5,85.5 Z"/></g>
<g><path style="opacity:1" fill="#050601" d="M 221.5,136.5 C 229.227,135.883 233.06,139.55 233,147.5C 233.392,151.528 233.892,155.528 234.5,159.5C 256.503,159.333 278.503,159.5 300.5,160C 301.022,160.561 301.355,161.228 301.5,162C 286.878,199.876 271.878,237.543 256.5,275C 228.169,275.5 199.835,275.667 171.5,275.5C 170.841,272.545 170.508,269.545 170.5,266.5C 146.429,261.066 122.763,254.232 99.5,246C 95.5422,243.766 92.0422,240.933 89,237.5C 87.4961,233.961 87.1628,230.295 88,226.5C 90.0512,221.786 92.8845,217.619 96.5,214C 112.281,201.369 128.115,188.869 144,176.5C 143.353,172.223 142.519,167.89 141.5,163.5C 141.57,162.228 141.903,161.062 142.5,160C 160.509,159.833 178.509,159.333 196.5,158.5C 203.996,150.123 212.33,142.79 221.5,136.5 Z"/></g>
<g><path style="opacity:1" fill="#605613" d="M 223.5,140.5 C 224.822,140.33 225.989,140.663 227,141.5C 229.151,147.3 229.984,153.3 229.5,159.5C 220.161,159.666 210.827,159.5 201.5,159C 208.463,152.187 215.797,146.02 223.5,140.5 Z"/></g>
<g><path style="opacity:0.102" fill="#ecebe3" d="M 37.5,143.5 C 37.2041,145.403 36.5375,147.07 35.5,148.5C 35.1201,146.302 35.7868,144.635 37.5,143.5 Z"/></g>
<g><path style="opacity:1" fill="#395f01" d="M 229.5,188.5 C 224.833,188.5 220.167,188.5 215.5,188.5C 215.5,200.833 215.5,213.167 215.5,225.5C 227.5,225.5 239.5,225.5 251.5,225.5C 251.5,213.167 251.5,200.833 251.5,188.5C 245.833,188.5 240.167,188.5 234.5,188.5C 234.5,180.5 234.5,172.5 234.5,164.5C 254.844,164.167 275.178,164.5 295.5,165.5C 281.645,200.617 267.645,235.617 253.5,270.5C 227.5,271.833 201.5,271.833 175.5,270.5C 166.036,235.442 156.37,200.442 146.5,165.5C 174.159,164.5 201.825,164.167 229.5,164.5C 229.5,172.5 229.5,180.5 229.5,188.5 Z"/></g>
<g><path style="opacity:0.408" fill="#cfcbb7" d="M 32.5,161.5 C 32.5797,164.781 31.913,167.781 30.5,170.5C 30.4203,167.219 31.087,164.219 32.5,161.5 Z"/></g>
<g><path style="opacity:1" fill="#375c01" d="M 144.5,180.5 C 145.376,180.369 146.043,180.702 146.5,181.5C 147.093,183.382 147.76,185.215 148.5,187C 146.754,187.471 145.087,188.138 143.5,189C 134.782,196.052 125.782,202.719 116.5,209C 111.966,213.199 107.799,217.699 104,222.5C 101.885,230.172 104.385,235.672 111.5,239C 129.129,245.653 147.129,251.32 165.5,256C 167.099,257.066 168.099,258.566 168.5,260.5C 167.833,260.833 167.167,261.167 166.5,261.5C 148.005,256.929 129.671,251.762 111.5,246C 104.093,243.553 97.5934,239.719 92,234.5C 91.3333,232.167 91.3333,229.833 92,227.5C 96.758,220.738 102.258,214.571 108.5,209C 118.833,201.333 129.167,193.667 139.5,186C 141.373,184.296 143.04,182.463 144.5,180.5 Z"/></g>
<g><path style="opacity:1" fill="#605613" d="M 147.5,191.5 C 148.586,191.62 149.253,192.287 149.5,193.5C 154.715,212.744 160.048,231.911 165.5,251C 149.986,247.723 134.653,243.39 119.5,238C 115.148,236.318 111.314,233.818 108,230.5C 107.333,228.5 107.333,226.5 108,224.5C 118.72,212.771 130.886,202.937 144.5,195C 145.71,193.961 146.71,192.794 147.5,191.5 Z"/></g>
<g><path style="opacity:1" fill="#192a00" d="M 229.5,188.5 C 225.366,189.485 221.032,189.818 216.5,189.5C 216.5,201.167 216.5,212.833 216.5,224.5C 227.833,224.5 239.167,224.5 250.5,224.5C 250.5,212.833 250.5,201.167 250.5,189.5C 244.974,189.821 239.64,189.488 234.5,188.5C 240.167,188.5 245.833,188.5 251.5,188.5C 251.5,200.833 251.5,213.167 251.5,225.5C 239.5,225.5 227.5,225.5 215.5,225.5C 215.5,213.167 215.5,200.833 215.5,188.5C 220.167,188.5 224.833,188.5 229.5,188.5 Z"/></g>
<g><path style="opacity:1" fill="#ffb0cb" d="M 220.5,193.5 C 229.167,193.5 237.833,193.5 246.5,193.5C 246.5,202.5 246.5,211.5 246.5,220.5C 237.833,220.5 229.167,220.5 220.5,220.5C 220.5,211.5 220.5,202.5 220.5,193.5 Z"/></g>
<g><path style="opacity:0.42" fill="#dedccf" d="M 29.5,218.5 C 30.6874,221.946 31.3541,225.613 31.5,229.5C 29.9177,226.124 29.2511,222.458 29.5,218.5 Z"/></g>
<g><path style="opacity:0.447" fill="#d4d1bf" d="M 392.5,260.5 C 392.34,262.153 391.674,263.486 390.5,264.5C 390.229,262.62 390.896,261.287 392.5,260.5 Z"/></g>
<g><path style="opacity:0.275" fill="#e3e0d4" d="M 386.5,273.5 C 386.573,275.027 385.906,276.027 384.5,276.5C 384.427,274.973 385.094,273.973 386.5,273.5 Z"/></g>
<g><path style="opacity:0.267" fill="#cfccb7" d="M 319.5,346.5 C 318.486,347.674 317.153,348.34 315.5,348.5C 316.287,346.896 317.62,346.229 319.5,346.5 Z"/></g>
<g><path style="opacity:0.439" fill="#d2cebb" d="M 304.5,354.5 C 303.713,356.104 302.38,356.771 300.5,356.5C 301.514,355.326 302.847,354.66 304.5,354.5 Z"/></g>
<g><path style="opacity:0.29" fill="#dfddcf" d="M 146.5,362.5 C 148.38,362.229 149.713,362.896 150.5,364.5C 148.847,364.34 147.514,363.674 146.5,362.5 Z"/></g>
<g><path style="opacity:0.875" fill="#a8a07c" d="M 150.5,364.5 C 153.388,363.99 155.721,364.656 157.5,366.5C 155.062,366.814 152.729,366.148 150.5,364.5 Z"/></g>
<g><path style="opacity:0.361" fill="#dbd9ca" d="M 263.5,369.5 C 261.485,370.924 259.152,371.59 256.5,371.5C 258.515,370.076 260.848,369.41 263.5,369.5 Z"/></g>
</svg>
