<?xml version="1.0" encoding="UTF-8"?>
<!DOCTYPE svg PUBLIC "-//W3C//DTD SVG 1.1//EN" "http://www.w3.org/Graphics/SVG/1.1/DTD/svg11.dtd">
<svg xmlns="http://www.w3.org/2000/svg" version="1.1" width="378px" height="357px" style="shape-rendering:geometricPrecision; text-rendering:geometricPrecision; image-rendering:optimizeQuality; fill-rule:evenodd; clip-rule:evenodd" xmlns:xlink="http://www.w3.org/1999/xlink">
<g><path style="opacity:0.455" fill="#cbc8b2" d="M 176.5,1.5 C 180.486,0.834341 184.653,0.501008 189,0.5C 196.386,0.407591 203.552,1.07426 210.5,2.5C 199.181,1.77842 187.848,1.44509 176.5,1.5 Z"/></g>
<g><path style="opacity:0.733" fill="#a19b73" d="M 176.5,1.5 C 170.699,2.68177 164.699,3.34843 158.5,3.5C 164.261,1.94306 170.261,1.27639 176.5,1.5 Z"/></g>
<g><path style="opacity:1" fill="#615715" d="M 176.5,1.5 C 187.848,1.44509 199.181,1.77842 210.5,2.5C 216.818,2.53004 222.985,3.53004 229,5.5C 231.271,4.77098 233.438,5.10431 235.5,6.5C 237.515,7.92381 239.848,8.59047 242.5,8.5C 268.315,15.365 291.315,27.365 311.5,44.5C 312.543,47.0562 314.21,49.2228 316.5,51C 320.012,54.0097 323.679,56.843 327.5,59.5C 328.464,63.7971 331.13,66.4638 335.5,67.5C 371.835,111.932 384.001,162.599 372,219.5C 369.72,227.026 367.22,234.359 364.5,241.5C 362.896,242.287 362.229,243.62 362.5,245.5C 361.424,248.648 360.091,251.648 358.5,254.5C 357.094,254.973 356.427,255.973 356.5,257.5C 344.843,281.009 328.509,300.842 307.5,317C 301.991,320.363 296.658,323.863 291.5,327.5C 289.62,327.229 288.287,327.896 287.5,329.5C 284.096,331.867 280.429,333.867 276.5,335.5C 274.847,335.66 273.514,336.326 272.5,337.5C 260.944,343.765 248.611,348.099 235.5,350.5C 232.848,350.41 230.515,351.076 228.5,352.5C 219.534,354.073 210.534,355.406 201.5,356.5C 192.833,356.5 184.167,356.5 175.5,356.5C 159.841,355.758 144.508,352.758 129.5,347.5C 127.721,345.656 125.388,344.99 122.5,345.5C 121.713,343.896 120.38,343.229 118.5,343.5C 64.8164,322.982 27.983,285.649 8,231.5C 6.33971,224.527 4.83971,217.527 3.5,210.5C 3.35407,206.613 2.6874,202.946 1.5,199.5C 0.833333,196.167 0.166667,192.833 -0.5,189.5C -0.5,189.167 -0.5,188.833 -0.5,188.5C 0.833333,181.833 0.833333,175.167 -0.5,168.5C -0.5,168.167 -0.5,167.833 -0.5,167.5C 0.354713,162.144 1.35471,156.811 2.5,151.5C 3.91301,148.781 4.57968,145.781 4.5,142.5C 5.29312,138.12 6.29312,133.787 7.5,129.5C 8.53747,128.07 9.20414,126.403 9.5,124.5C 25.2935,79.0396 54.6268,45.3729 97.5,23.5C 99.0269,23.573 100.027,22.9063 100.5,21.5C 103.256,19.7962 106.256,18.4629 109.5,17.5C 111.201,17.0338 112.701,17.0338 114,17.5C 114.698,16.3094 115.531,15.3094 116.5,14.5C 122.211,11.9957 128.211,9.99566 134.5,8.5C 135.822,8.33003 136.989,8.66337 138,9.5C 138.985,8.18586 140.152,7.18586 141.5,6.5C 146.975,5.14112 152.642,4.14112 158.5,3.5C 164.699,3.34843 170.699,2.68177 176.5,1.5 Z"/></g>
<g><path style="opacity:0.447" fill="#dcdbcc" d="M 235.5,6.5 C 238.152,6.40953 240.485,7.07619 242.5,8.5C 239.848,8.59047 237.515,7.92381 235.5,6.5 Z"/></g>
<g><path style="opacity:1" fill="#ada582" d="M 141.5,6.5 C 140.152,7.18586 138.985,8.18586 138,9.5C 136.989,8.66337 135.822,8.33003 134.5,8.5C 136.515,7.07619 138.848,6.40953 141.5,6.5 Z"/></g>
<g><path style="opacity:1" fill="#a49c75" d="M 116.5,14.5 C 115.531,15.3094 114.698,16.3094 114,17.5C 112.701,17.0338 111.201,17.0338 109.5,17.5C 111.426,15.7073 113.759,14.7073 116.5,14.5 Z"/></g>
<g><path style="opacity:0.694" fill="#c4bfa5" d="M 100.5,21.5 C 100.027,22.9063 99.0269,23.573 97.5,23.5C 97.9731,22.0937 98.9731,21.427 100.5,21.5 Z"/></g>
<g><path style="opacity:0.82" fill="#8d8555" d="M 311.5,44.5 C 314.201,47.1995 317.201,49.5328 320.5,51.5C 322.907,54.2314 325.241,56.8981 327.5,59.5C 323.679,56.843 320.012,54.0097 316.5,51C 314.21,49.2228 312.543,47.0562 311.5,44.5 Z"/></g>
<g><path style="opacity:0.875" fill="#8e8658" d="M 327.5,59.5 C 329.833,62.5 332.5,65.1667 335.5,67.5C 331.13,66.4638 328.464,63.7971 327.5,59.5 Z"/></g>
<g><path style="opacity:1" fill="#c2c2c1" d="M 234.5,64.5 C 236.346,64.2222 237.68,64.8888 238.5,66.5C 235.837,70.9851 234.504,75.8184 234.5,81C 237.306,92.3348 239.306,103.835 240.5,115.5C 240.332,121 239.332,126.333 237.5,131.5C 235.365,131.853 234.032,131.02 233.5,129C 237.681,117.682 237.181,106.515 232,95.5C 230.669,87.5363 230.335,79.5363 231,71.5C 231.653,68.8608 232.82,66.5274 234.5,64.5 Z"/></g>
<g><path style="opacity:1" fill="#c0bfbd" d="M 189.5,65.5 C 191.346,65.2222 192.68,65.8888 193.5,67.5C 192.441,70.2355 191.775,73.0688 191.5,76C 194.271,85.9979 195.437,96.1646 195,106.5C 194.735,108.651 193.735,110.318 192,111.5C 190.72,111.387 189.887,110.72 189.5,109.5C 190.969,106.875 191.635,104.042 191.5,101C 190.152,92.606 188.485,84.2726 186.5,76C 186.808,72.2625 187.808,68.7625 189.5,65.5 Z"/></g>
<g><path style="opacity:1" fill="#bebebb" d="M 148.5,66.5 C 150.252,66.4176 151.252,67.2509 151.5,69C 149.768,73.6913 148.768,78.5247 148.5,83.5C 149.913,94.9707 151.913,106.304 154.5,117.5C 154.624,122.339 153.79,127.005 152,131.5C 150.951,133.107 149.451,133.773 147.5,133.5C 150.754,120.25 149.921,107.25 145,94.5C 142.131,84.5905 143.298,75.2572 148.5,66.5 Z"/></g>
<g><path style="opacity:1" fill="#050601" d="M 193.5,117.5 C 201.227,116.883 205.06,120.55 205,128.5C 205.392,132.528 205.892,136.528 206.5,140.5C 228.503,140.333 250.503,140.5 272.5,141C 273.022,141.561 273.355,142.228 273.5,143C 258.878,180.876 243.878,218.543 228.5,256C 200.169,256.5 171.835,256.667 143.5,256.5C 142.841,253.545 142.508,250.545 142.5,247.5C 118.429,242.066 94.7628,235.232 71.5,227C 67.5422,224.766 64.0422,221.933 61,218.5C 59.4961,214.961 59.1628,211.295 60,207.5C 62.0512,202.786 64.8845,198.619 68.5,195C 84.2815,182.369 100.115,169.869 116,157.5C 115.353,153.223 114.519,148.89 113.5,144.5C 113.57,143.228 113.903,142.062 114.5,141C 132.509,140.833 150.509,140.333 168.5,139.5C 175.996,131.123 184.33,123.79 193.5,117.5 Z"/></g>
<g><path style="opacity:1" fill="#605613" d="M 195.5,121.5 C 196.822,121.33 197.989,121.663 199,122.5C 201.151,128.3 201.984,134.3 201.5,140.5C 192.161,140.666 182.827,140.5 173.5,140C 180.463,133.187 187.797,127.02 195.5,121.5 Z"/></g>
<g><path style="opacity:0.102" fill="#ecebe3" d="M 9.5,124.5 C 9.20414,126.403 8.53747,128.07 7.5,129.5C 7.12012,127.302 7.78679,125.635 9.5,124.5 Z"/></g>
<g><path style="opacity:1" fill="#395f01" d="M 201.5,169.5 C 196.833,169.5 192.167,169.5 187.5,169.5C 187.5,181.833 187.5,194.167 187.5,206.5C 199.5,206.5 211.5,206.5 223.5,206.5C 223.5,194.167 223.5,181.833 223.5,169.5C 217.833,169.5 212.167,169.5 206.5,169.5C 206.5,161.5 206.5,153.5 206.5,145.5C 226.844,145.167 247.178,145.5 267.5,146.5C 253.645,181.617 239.645,216.617 225.5,251.5C 199.5,252.833 173.5,252.833 147.5,251.5C 138.036,216.442 128.37,181.442 118.5,146.5C 146.159,145.5 173.825,145.167 201.5,145.5C 201.5,153.5 201.5,161.5 201.5,169.5 Z"/></g>
<g><path style="opacity:0.408" fill="#cfcbb7" d="M 4.5,142.5 C 4.57968,145.781 3.91301,148.781 2.5,151.5C 2.42032,148.219 3.08699,145.219 4.5,142.5 Z"/></g>
<g><path style="opacity:1" fill="#375c01" d="M 116.5,161.5 C 117.376,161.369 118.043,161.702 118.5,162.5C 119.093,164.382 119.76,166.215 120.5,168C 118.754,168.471 117.087,169.138 115.5,170C 106.782,177.052 97.7817,183.719 88.5,190C 83.9657,194.199 79.799,198.699 76,203.5C 73.8851,211.172 76.3851,216.672 83.5,220C 101.129,226.653 119.129,232.32 137.5,237C 139.099,238.066 140.099,239.566 140.5,241.5C 139.833,241.833 139.167,242.167 138.5,242.5C 120.005,237.929 101.671,232.762 83.5,227C 76.0934,224.553 69.5934,220.719 64,215.5C 63.3333,213.167 63.3333,210.833 64,208.5C 68.758,201.738 74.258,195.571 80.5,190C 90.8333,182.333 101.167,174.667 111.5,167C 113.373,165.296 115.04,163.463 116.5,161.5 Z"/></g>
<g><path style="opacity:1" fill="#605613" d="M 119.5,172.5 C 120.586,172.62 121.253,173.287 121.5,174.5C 126.715,193.744 132.048,212.911 137.5,232C 121.986,228.723 106.653,224.39 91.5,219C 87.1476,217.318 83.3143,214.818 80,211.5C 79.3333,209.5 79.3333,207.5 80,205.5C 90.7195,193.771 102.886,183.937 116.5,176C 117.71,174.961 118.71,173.794 119.5,172.5 Z"/></g>
<g><path style="opacity:1" fill="#192a00" d="M 201.5,169.5 C 197.366,170.485 193.032,170.818 188.5,170.5C 188.5,182.167 188.5,193.833 188.5,205.5C 199.833,205.5 211.167,205.5 222.5,205.5C 222.5,193.833 222.5,182.167 222.5,170.5C 216.974,170.821 211.64,170.488 206.5,169.5C 212.167,169.5 217.833,169.5 223.5,169.5C 223.5,181.833 223.5,194.167 223.5,206.5C 211.5,206.5 199.5,206.5 187.5,206.5C 187.5,194.167 187.5,181.833 187.5,169.5C 192.167,169.5 196.833,169.5 201.5,169.5 Z"/></g>
<g><path style="opacity:1" fill="#ffb0cb" d="M 192.5,174.5 C 201.167,174.5 209.833,174.5 218.5,174.5C 218.5,183.5 218.5,192.5 218.5,201.5C 209.833,201.5 201.167,201.5 192.5,201.5C 192.5,192.5 192.5,183.5 192.5,174.5 Z"/></g>
<g><path style="opacity:0.42" fill="#dedccf" d="M 1.5,199.5 C 2.6874,202.946 3.35407,206.613 3.5,210.5C 1.91774,207.124 1.25108,203.458 1.5,199.5 Z"/></g>
<g><path style="opacity:0.447" fill="#d4d1bf" d="M 364.5,241.5 C 364.34,243.153 363.674,244.486 362.5,245.5C 362.229,243.62 362.896,242.287 364.5,241.5 Z"/></g>
<g><path style="opacity:0.275" fill="#e3e0d4" d="M 358.5,254.5 C 358.573,256.027 357.906,257.027 356.5,257.5C 356.427,255.973 357.094,254.973 358.5,254.5 Z"/></g>
<g><path style="opacity:0.267" fill="#cfccb7" d="M 291.5,327.5 C 290.486,328.674 289.153,329.34 287.5,329.5C 288.287,327.896 289.62,327.229 291.5,327.5 Z"/></g>
<g><path style="opacity:0.439" fill="#d2cebb" d="M 276.5,335.5 C 275.713,337.104 274.38,337.771 272.5,337.5C 273.514,336.326 274.847,335.66 276.5,335.5 Z"/></g>
<g><path style="opacity:0.29" fill="#dfddcf" d="M 118.5,343.5 C 120.38,343.229 121.713,343.896 122.5,345.5C 120.847,345.34 119.514,344.674 118.5,343.5 Z"/></g>
<g><path style="opacity:0.875" fill="#a8a07c" d="M 122.5,345.5 C 125.388,344.99 127.721,345.656 129.5,347.5C 127.062,347.814 124.729,347.148 122.5,345.5 Z"/></g>
<g><path style="opacity:0.361" fill="#dbd9ca" d="M 235.5,350.5 C 233.485,351.924 231.152,352.59 228.5,352.5C 230.515,351.076 232.848,350.41 235.5,350.5 Z"/></g>
</svg>
